<?xml version="1.0" encoding="UTF-8" standalone="no"?>
<!-- Created with Inkscape (http://www.inkscape.org/) -->

<svg
   width="600"
   height="600"
   viewBox="0 0 158.75 158.75"
   version="1.1"
   id="svg5"
   inkscape:version="1.3.2 (091e20e, 2023-11-25, custom)"
   sodipodi:docname="LOGO - Gradiente.svg"
   xmlns:inkscape="http://www.inkscape.org/namespaces/inkscape"
   xmlns:sodipodi="http://sodipodi.sourceforge.net/DTD/sodipodi-0.dtd"
   xmlns:xlink="http://www.w3.org/1999/xlink"
   xmlns="http://www.w3.org/2000/svg"
   xmlns:svg="http://www.w3.org/2000/svg">
  <sodipodi:namedview
     id="namedview7"
     pagecolor="#ffffff"
     bordercolor="#666666"
     borderopacity="1.0"
     inkscape:pageshadow="2"
     inkscape:pageopacity="0.0"
     inkscape:pagecheckerboard="0"
     inkscape:document-units="mm"
     showgrid="false"
     units="px"
     width="800px"
     inkscape:zoom="1.0633188"
     inkscape:cx="427.43531"
     inkscape:cy="320.22381"
     inkscape:window-width="1920"
     inkscape:window-height="1001"
     inkscape:window-x="-9"
     inkscape:window-y="-9"
     inkscape:window-maximized="1"
     inkscape:current-layer="layer1"
     inkscape:showpageshadow="2"
     inkscape:deskcolor="#d1d1d1" />
  <defs
     id="defs2">
    <linearGradient
       id="linearGradient16"
       inkscape:collect="always">
      <stop
         style="stop-color:#190226;stop-opacity:1;"
         offset="0"
         id="stop17" />
      <stop
         style="stop-color:#5881a6;stop-opacity:1;"
         offset="1"
         id="stop16" />
    </linearGradient>
    <linearGradient
       inkscape:collect="always"
       xlink:href="#linearGradient16"
       id="linearGradient17"
       x1="5.8346015"
       y1="79.474406"
       x2="153.14516"
       y2="79.474406"
       gradientUnits="userSpaceOnUse" />
  </defs>
  <g
     inkscape:label="Camada 1"
     inkscape:groupmode="layer"
     id="layer1">
    <path
       d="M 68.086204,149.66962 C 24.984639,124.88284 9.7158917,115.95383 8.6013074,114.8834 6.3432065,112.71475 5.8346015,110.63608 5.8346015,103.57589 c 0,-5.163959 0.1504066,-6.510781 0.703382,-6.298768 0.3868696,0.148329 16.9579265,9.647068 36.8245935,21.108318 l 36.121227,20.83867 29.383906,-16.91613 29.38391,-16.91613 0.14923,-8.463096 c 0.0821,-4.654704 0.021,-8.463095 -0.13523,-8.463095 -0.1564,0 -13.44251,7.573829 -29.52466,16.830721 L 79.500577,122.12709 42.667596,100.89019 5.8346015,79.653282 V 64.292017 c 0,-16.770815 0.1535552,-17.7812 3.0760797,-20.238116 C 9.7899052,43.314733 25.432434,34.105788 43.67185,23.589566 l 33.162544,-19.1203833 3.08789,0.2335405 c 2.545406,0.1925005 4.060339,0.7926169 8.623116,3.4158809 3.044377,1.7503068 5.467002,3.2505329 5.383601,3.3338449 -0.08329,0.08335 -13.053871,7.596545 -28.823287,16.696056 -15.769431,9.099525 -28.876204,16.748403 -29.126161,16.997528 -0.392252,0.39093 3.231391,2.718651 11.838793,7.604924 l 2.177399,1.236068 29.234402,-16.912954 c 16.078935,-9.30213 29.478133,-16.915375 29.776003,-16.918318 1.05444,-0.01015 40.09793,22.899259 41.62382,24.423781 l 1.54961,1.548209 -5.06844,2.973561 c -16.41731,9.631739 -67.273781,38.823254 -67.636535,38.823254 -0.237856,0 -3.618826,-1.8765 -7.513262,-4.169995 l -7.080833,-4.169994 1.482664,-0.912548 c 0.815484,-0.501902 13.66828,-7.914499 28.561824,-16.472446 14.893532,-8.55796 27.500762,-15.847482 28.016102,-16.198938 0.80897,-0.551741 -0.0487,-1.205901 -6.27918,-4.78916 -3.96887,-2.282579 -7.34836,-4.150134 -7.50991,-4.150134 -0.1615,0 -13.420974,7.578758 -29.465304,16.841689 -16.044329,9.262917 -29.415221,16.843559 -29.713088,16.84585 -0.297868,0.0029 -6.707428,-3.571082 -14.243441,-7.94084 -7.536028,-4.369773 -14.061665,-8.082979 -14.501422,-8.25159 -0.6879,-0.263736 -0.778687,0.87951 -0.650103,8.186036 l 0.149478,8.492581 29.384098,16.949022 29.384098,16.949039 36.020504,-20.799209 c 19.81127,-11.439569 36.38225,-20.937911 36.82442,-21.107434 0.70325,-0.269623 0.80391,2.64814 0.80391,23.304816 0,25.655327 -0.009,25.728557 -3.04739,28.529107 -1.2325,1.1356 -59.927932,35.3282 -66.266221,38.60291 -0.86898,0.44898 -2.885264,0.81631 -4.48061,0.81631 -2.661685,0 -3.589792,-0.3963 -11.264749,-4.81001 z"
       style="mix-blend-mode:darken;fill:url(#linearGradient17);stroke:none;stroke-width:0.143229;stroke-opacity:0.998378"
       id="path805" />
  </g>
</svg>
