<?xml version="1.0" encoding="UTF-8" standalone="no"?>
<!-- Created with Inkscape (http://www.inkscape.org/) -->

<svg
   width="800"
   height="600"
   viewBox="0 0 211.66666 158.75"
   version="1.1"
   id="svg5"
   inkscape:version="1.1.2 (0a00cf5339, 2022-02-04)"
   sodipodi:docname="LOGO BRANCO.svg"
   xmlns:inkscape="http://www.inkscape.org/namespaces/inkscape"
   xmlns:sodipodi="http://sodipodi.sourceforge.net/DTD/sodipodi-0.dtd"
   xmlns="http://www.w3.org/2000/svg"
   xmlns:svg="http://www.w3.org/2000/svg">
  <sodipodi:namedview
     id="namedview7"
     pagecolor="#ffffff"
     bordercolor="#666666"
     borderopacity="1.0"
     inkscape:pageshadow="2"
     inkscape:pageopacity="0.0"
     inkscape:pagecheckerboard="0"
     inkscape:document-units="mm"
     showgrid="false"
     units="px"
     width="800px"
     inkscape:zoom="0.75187991"
     inkscape:cx="397.00489"
     inkscape:cy="349.1249"
     inkscape:window-width="1874"
     inkscape:window-height="1016"
     inkscape:window-x="1966"
     inkscape:window-y="27"
     inkscape:window-maximized="1"
     inkscape:current-layer="layer1" />
  <defs
     id="defs2" />
  <g
     inkscape:label="Camada 1"
     inkscape:groupmode="layer"
     id="layer1">
    <path
       d="m 2.4479601,150.45845 c -0.2805572,-0.28056 -0.5100893,-1.32588 -0.5100893,-2.32296 0,-1.35729 0.2066223,-1.92345 0.8221996,-2.25289 0.4882719,-0.26131 4.2803318,-0.44003 9.3366896,-0.44003 9.96043,0 9.394528,0.30161 9.394528,-5.00707 0,-4.93006 0.346282,-4.76964 -10.296044,-4.76964 -7.5788341,0 -8.7756561,-0.0895 -8.9993564,-0.67239 -0.141861,-0.36979 -0.2580168,-4.85821 -0.2580168,-9.97426 0,-8.76155 0.047715,-9.32754 0.8221996,-9.742 0.5060889,-0.27086 5.0568724,-0.44003 11.8362076,-0.44003 10.130341,0 11.070432,0.0623 11.717482,0.77735 0.796253,0.87985 0.918546,2.70239 0.263463,3.92644 -0.412554,0.77087 -0.971531,0.8222 -8.954501,0.8222 -5.056358,0 -8.848418,0.17872 -9.3366899,0.44003 -0.7220614,0.38645 -0.8221996,0.91971 -0.8221996,4.37829 0,2.49631 0.186765,4.125 0.5100893,4.44834 0.3631193,0.3631 2.9876612,0.51009 9.1087482,0.51009 7.250176,0 8.703393,0.10475 9.266611,0.66797 0.564826,0.56482 0.667984,2.04602 0.667984,9.59209 0,5.33875 -0.176788,9.25448 -0.440042,9.74636 -0.41853,0.78201 -1.006378,0.82219 -12.029608,0.82219 -8.4473355,0 -11.7278601,-0.13832 -12.0996549,-0.51008 z m 39.1068499,0 c -0.36455,-0.36455 -0.51009,-3.07296 -0.51009,-9.49253 v -8.98244 l -4.675823,-7.33125 c -2.571702,-4.0322 -4.675824,-7.69212 -4.675824,-8.13313 0,-1.02049 1.230817,-1.68192 3.129763,-1.68192 1.870076,0 2.058014,0.19748 5.620332,5.90568 1.616702,2.59057 3.130744,4.71015 3.364533,4.71015 0.23379,0 1.747831,-2.11958 3.364533,-4.71015 3.562319,-5.7082 3.750256,-5.90568 5.620332,-5.90568 1.864421,0 3.129747,0.65737 3.129747,1.626 0,0.41027 -2.104106,4.06945 -4.675807,8.13152 l -4.675824,7.38555 v 8.98404 c 0,6.42085 -0.145556,9.12959 -0.510089,9.49416 -0.280541,0.28054 -1.294358,0.51008 -2.252892,0.51008 -0.95855,0 -1.97235,-0.22954 -2.252891,-0.51008 z m 19.758271,0.23319 c -0.491919,-0.49192 -0.319645,-4.1991 0.220214,-4.73898 0.364083,-0.36408 3.043988,-0.51009 9.362171,-0.51009 h 8.852065 l 0.414545,-1.09037 c 0.63717,-1.67584 0.513994,-6.68739 -0.187969,-7.64869 -0.554753,-0.75968 -1.321541,-0.84197 -9.670441,-1.03765 l -9.06791,-0.21254 -0.114549,-9.77635 c -0.103303,-8.81517 -0.04306,-9.82872 0.612589,-10.30812 1.055315,-0.77168 22.194876,-0.75918 23.25191,0.0145 0.575091,0.42052 0.715378,1.02891 0.612589,2.65673 l -0.133347,2.1113 -9.012658,0.21252 c -5.649106,0.13319 -9.184869,0.38517 -9.474133,0.67511 -0.287562,0.28822 -0.415317,2.05042 -0.338989,4.67583 l 0.122422,4.21326 8.987692,0.11455 c 6.936186,0.0884 9.096876,0.24614 9.466036,0.69094 0.331325,0.39923 0.443175,3.56451 0.363939,10.29973 l -0.114389,9.72338 -11.931028,0.11278 c -6.562061,0.062 -12.06145,-0.0177 -12.220887,-0.17711 z m 39.969609,0.0128 c -0.16637,-0.16639 -0.30248,-6.64203 -0.30248,-14.39039 0,-11.47955 -0.1115,-14.24068 -0.60192,-14.91304 -0.503683,-0.69043 -1.284288,-0.85982 -4.782103,-1.03766 l -4.18016,-0.21254 -0.133346,-2.1113 c -0.102821,-1.62784 0.03743,-2.23621 0.612589,-2.65673 1.072666,-0.78438 22.19807,-0.78438 23.27072,0 0.57511,0.42052 0.71538,1.02889 0.61259,2.65673 l -0.13335,2.1113 -4.1252,0.21254 c -2.55592,0.13174 -4.33465,0.42251 -4.6758,0.76452 -0.42056,0.42159 -0.60085,3.98629 -0.76318,15.09015 l -0.21253,14.53816 -2.1417,0.12531 c -1.17795,0.0689 -2.27783,-0.0113 -2.44419,-0.17713 z m 19.26589,-0.55791 c -0.6505,-1.21551 -0.53427,-3.27357 0.22796,-4.0358 0.57299,-0.573 2.23923,-0.66798 11.71748,-0.66798 6.80382,0 11.36545,0.16907 11.87173,0.44002 0.61558,0.32945 0.8222,0.89561 0.8222,2.2529 0,0.99707 -0.22955,2.04239 -0.51009,2.32295 -0.37179,0.3718 -3.65232,0.51009 -12.09967,0.51009 -11.02323,0 -11.61108,-0.0402 -12.02961,-0.8222 z m 33.00565,0.5453 c -0.15937,-0.15937 -0.28987,-8.0939 -0.28987,-17.63214 0,-16.71076 0.0299,-17.3583 0.82221,-17.78231 1.27669,-0.68328 22.19202,-0.58801 23.1403,0.1054 0.57511,0.42052 0.71538,1.02889 0.61259,2.65673 l -0.13334,2.1113 -8.92657,0.21254 c -4.90961,0.11695 -9.16567,0.36728 -9.4579,0.55642 -0.74832,0.48432 -0.76848,23.26567 -0.0212,24.01289 0.36302,0.36302 2.98284,0.51009 9.08704,0.51009 9.75365,0 9.6597,-0.0325 9.44959,3.26129 l -0.13094,2.05214 -11.93103,0.11278 c -6.56206,0.062 -12.06145,-0.0177 -12.22088,-0.17711 z m 32.04214,-0.52403 c -0.29633,-0.55371 -0.45143,-6.52595 -0.45143,-17.38344 0,-15.48385 0.0496,-16.58494 0.77736,-17.24351 0.87984,-0.79626 2.70238,-0.91856 3.92641,-0.26347 0.7569,0.40509 0.8222,0.94745 0.8222,6.82918 0,3.59129 0.1927,6.74917 0.44003,7.21132 0.40348,0.7539 0.94377,0.82221 6.50363,0.82221 4.14938,0 6.22465,-0.16104 6.57371,-0.51009 0.35208,-0.35208 0.51009,-2.51537 0.51009,-6.98339 0,-5.31805 0.11921,-6.59252 0.66797,-7.14129 0.76222,-0.76223 2.82028,-0.87846 4.03579,-0.22794 0.792,0.42387 0.8222,1.06899 0.8222,17.55561 0,12.74532 -0.13029,17.24579 -0.51009,17.62563 -0.28054,0.28054 -1.29434,0.51009 -2.25289,0.51009 -0.95853,0 -1.97235,-0.22955 -2.25289,-0.51009 -0.35359,-0.35359 -0.51009,-2.56601 -0.51009,-7.21131 0,-6.19025 -0.0627,-6.73477 -0.8222,-7.14125 -0.45222,-0.24202 -3.29805,-0.44003 -6.32408,-0.44003 -4.59286,0 -5.59824,0.11584 -6.08526,0.70111 -0.41909,0.50368 -0.64324,2.62855 -0.79592,7.5451 l -0.21253,6.84394 -2.20529,0.12756 c -1.84133,0.10651 -2.27978,-0.0113 -2.65672,-0.71594 z m -65.04779,-15.32395 c -0.68386,-1.27783 -0.5197,-3.22468 0.33734,-4.00027 0.68094,-0.61625 2.13408,-0.70349 11.71748,-0.70349 6.72842,0 11.25668,0.1694 11.76235,0.44003 0.59617,0.31907 0.8222,0.89377 0.8222,2.0906 0,3.19246 0.81333,2.99531 -12.35769,2.99531 -11.27244,0 -11.86279,-0.0395 -12.28168,-0.82218 z m 0,-15.30271 c -0.68386,-1.27783 -0.5197,-3.2247 0.33734,-4.00029 0.68094,-0.61626 2.13408,-0.7035 11.71748,-0.7035 6.72842,0 11.25668,0.1694 11.76235,0.44003 0.59617,0.31907 0.8222,0.89378 0.8222,2.09062 0,3.19249 0.81333,2.99535 -12.35769,2.99535 -11.27244,0 -11.86279,-0.0395 -12.28168,-0.82221 z"
       style="fill:#ffffff;stroke-width:0.112467;stroke:none"
       id="path764" />
    <path
       d="M 98.001753,103.41941 C 68.296215,86.321096 57.773021,80.161712 57.004852,79.423311 c -1.556285,-1.495978 -1.906816,-2.929865 -1.906816,-7.800097 0,-3.56219 0.103661,-4.491243 0.484774,-4.344998 0.266625,0.102321 11.687381,6.654705 25.379459,14.560869 l 24.894701,14.374847 20.25135,-11.669018 20.25135,-11.669022 0.10285,-5.83798 c 0.0566,-3.21089 0.0145,-5.837982 -0.0932,-5.837982 -0.10779,0 -9.26456,5.224543 -20.34836,11.6101 L 105.86853,84.42013 80.483282,69.77057 55.098036,55.121009 V 44.524557 c 0,-11.568778 0.105834,-12.265755 2.120029,-13.960578 0.605966,-0.509889 11.386771,-6.862371 23.957346,-14.116627 L 104.031,3.2577992 l 2.12817,0.1610966 c 1.75429,0.1327929 2.79838,0.546766 5.94304,2.3563387 2.09818,1.2073802 3.76785,2.2422621 3.71037,2.2997371 -0.0574,0.057473 -8.99671,5.2402204 -19.864976,11.5172124 -10.868268,6.276993 -19.901433,11.553316 -20.073706,11.725168 -0.27034,0.269664 2.227071,1.875372 8.159275,5.245998 l 1.500661,0.852659 20.148316,-11.666831 c 11.08158,-6.416758 20.31629,-11.668498 20.52158,-11.670533 0.72672,-0.0072 27.63544,15.796281 28.68708,16.847924 l 1.06799,1.067982 -3.49316,2.051205 c -11.31479,6.644136 -46.365,26.780916 -46.61501,26.780916 -0.16393,0 -2.49409,-1.294441 -5.17813,-2.876533 l -4.880104,-2.876533 1.021854,-0.629485 c 0.562023,-0.346215 9.42016,-5.459547 19.68477,-11.362965 10.2646,-5.903415 18.95349,-10.931846 19.30866,-11.174288 0.55754,-0.380597 -0.0336,-0.83185 -4.3276,-3.303638 -2.73534,-1.574556 -5.06448,-2.86283 -5.17582,-2.86283 -0.11131,0 -9.24972,5.227948 -20.30745,11.617666 -11.057731,6.389718 -20.272935,11.618965 -20.478227,11.620547 -0.205292,0.0016 -4.622743,-2.463395 -9.81656,-5.477728 -5.193813,-3.014338 -9.691271,-5.57577 -9.994353,-5.692074 -0.474101,-0.181929 -0.536675,0.606702 -0.448048,5.646857 l 0.103012,5.858318 20.251484,11.691716 20.251482,11.691716 24.82528,-14.347632 c 13.6539,-7.891201 25.0746,-14.443311 25.37934,-14.560246 0.48468,-0.185994 0.55406,1.826733 0.55406,16.076041 0,17.697455 -0.006,17.747965 -2.10026,19.679845 -0.84944,0.783346 -41.30225,24.369954 -45.67059,26.628904 -0.5989,0.30971 -1.98852,0.5631 -3.08803,0.5631 -1.83443,0 -2.47408,-0.27337 -7.763659,-3.31802 z"
       style="fill:#ffffff;stroke-width:0.0987577;stroke:none;stroke-opacity:0.99837768"
       id="path805" />
  </g>
</svg>
